<svg id="delivery" xmlns="http://www.w3.org/2000/svg" width="22" height="24" viewBox="0 0 22 24">
  <path id="Path_8" data-name="Path 8" d="M0,0H21V24H0Z" fill="none"/>
  <path id="Path_9" data-name="Path 9" d="M17.409,8H14.818V4H2.727A1.884,1.884,0,0,0,1,6V17H2.727a2.814,2.814,0,0,0,2.591,3,2.814,2.814,0,0,0,2.591-3h5.182a2.814,2.814,0,0,0,2.591,3,2.814,2.814,0,0,0,2.591-3H20V12Zm-.432,1.5L18.67,12H14.818V9.5ZM5.318,18a1.011,1.011,0,0,1,0-2,1.011,1.011,0,0,1,0,2Zm1.917-3a2.43,2.43,0,0,0-1.917-1A2.43,2.43,0,0,0,3.4,15H2.727V6H13.091v9Zm8.446,3a1.011,1.011,0,1,1,.864-1A.942.942,0,0,1,15.682,18Z" transform="translate(2)" />
</svg>
