<svg xmlns="http://www.w3.org/2000/svg" width="20" height="20" viewBox="0 0 20 20">
  <g id="view" transform="translate(4497 1161)">
    <rect id="Rectangle_16" data-name="Rectangle 16" width="20" height="20" transform="translate(-4497 -1161)" fill="none"/>
    <path id="view-2" data-name="view" d="M8.333,4.5A7.885,7.885,0,0,0,1,9.5a7.878,7.878,0,0,0,14.667,0A7.885,7.885,0,0,0,8.333,4.5Zm0,8.333A3.333,3.333,0,1,1,11.667,9.5,3.335,3.335,0,0,1,8.333,12.833Zm0-5.333a2,2,0,1,0,2,2A2,2,0,0,0,8.333,7.5Z" transform="translate(-4495 -1160.5)" fill="#8e5be8"/>
  </g>
</svg>
